<svg id="object" height="512" viewBox="0 0 32 32" width="512" xmlns="http://www.w3.org/2000/svg"><path d="m16 1a11 11 0 0 0 -11 11c0 5.81 9.8 18.1 10.22 18.63a1 1 0 0 0 1.56 0c.42-.53 10.22-12.82 10.22-18.63a11 11 0 0 0 -11-11z" fill="#eef5fd"/><path d="m27 12c0 5.81-9.8 18.1-10.22 18.62a1 1 0 0 1 -.78.38v-30a11 11 0 0 1 11 11z" fill="#d7e2f2"/><path d="m21.74 8.17a4.41 4.41 0 0 0 -5.74-.17 4.41 4.41 0 0 0 -5.74.2 4 4 0 0 0 0 5.79l5.05 4.77a1 1 0 0 0 1.38 0l5-4.77a4 4 0 0 0 0-5.79z" fill="#ff9797"/><path d="m23 11.07a4 4 0 0 1 -1.26 2.93l-5 4.77a1 1 0 0 1 -.74.23v-11a4.41 4.41 0 0 1 5.74.2 4 4 0 0 1 1.26 2.87z" fill="#e47979"/></svg>