<svg id="object" height="512" viewBox="0 0 32 32" width="512" xmlns="http://www.w3.org/2000/svg"><path d="m16 1a11 11 0 0 0 -11 11c0 5.81 9.8 18.1 10.22 18.63a1 1 0 0 0 1.56 0c.42-.53 10.22-12.82 10.22-18.63a11 11 0 0 0 -11-11z" fill="#eef5fd"/><path d="m27 12c0 5.81-9.8 18.1-10.22 18.63a1 1 0 0 1 -.78.37v-30a11 11 0 0 1 11 11z" fill="#d7e2f2"/><circle cx="16" cy="12" fill="#96d7ff" r="7"/><path d="m23 12a7 7 0 0 1 -7 7v-14a7 7 0 0 1 7 7z" fill="#86c3ef"/><path d="m19 11h-2v-2a1 1 0 0 0 -2 0v2h-2a1 1 0 0 0 0 2h2v2a1 1 0 0 0 2 0v-2h2a1 1 0 0 0 0-2z" fill="#eef5fd"/><path d="m20 12a1 1 0 0 1 -1 1h-2v2a1 1 0 0 1 -1 1v-8a1 1 0 0 1 1 1v2h2a1 1 0 0 1 1 1z" fill="#d7e2f2"/></svg>