<svg id="object" height="512" viewBox="0 0 32 32" width="512" xmlns="http://www.w3.org/2000/svg"><path d="m16 1a11 11 0 0 0 -11 11c0 5.81 9.8 18.1 10.22 18.63a1 1 0 0 0 1.56 0c.42-.53 10.22-12.82 10.22-18.63a11 11 0 0 0 -11-11z" fill="#eef5fd"/><path d="m27 12c0 5.81-9.8 18.1-10.22 18.63a1 1 0 0 1 -.78.37v-30a11 11 0 0 1 11 11z" fill="#d7e2f2"/><circle cx="16" cy="12" fill="#91e085" r="7"/><path d="m23 12a7 7 0 0 1 -7 7v-14a7 7 0 0 1 7 7z" fill="#84bf6f"/><path d="m15.21 15a1 1 0 0 1 -.72-.31l-2.22-2.34a1 1 0 0 1 1.46-1.35l1.48 1.57 3.06-3.23a1 1 0 1 1 1.46 1.38l-3.79 4a1 1 0 0 1 -.73.28z" fill="#eef5fd"/><path d="m19.73 10.69-3.73 3.94v-2.92l2.27-2.4a1 1 0 1 1 1.46 1.38z" fill="#d7e2f2"/></svg>